<mxfile host="app.diagrams.net" agent="Mozilla/5.0 (Windows NT 10.0; Win64; x64) AppleWebKit/537.36 (KHTML, like Gecko) Chrome/128.0.0.0 Safari/537.36 Edg/128.0.0.0" version="24.7.12">
  <diagram id="C5RBs43oDa-KdzZeNtuy" name="Page-1">
    <mxGraphModel dx="691" dy="399" grid="1" gridSize="10" guides="1" tooltips="1" connect="1" arrows="1" fold="1" page="1" pageScale="1" pageWidth="827" pageHeight="1169" math="0" shadow="0">
      <root>
        <mxCell id="WIyWlLk6GJQsqaUBKTNV-0" />
        <mxCell id="WIyWlLk6GJQsqaUBKTNV-1" parent="WIyWlLk6GJQsqaUBKTNV-0" />
        <mxCell id="4wEE5A84xw4fsfHNDBvs-0" value="Terreno" style="swimlane;fontStyle=1;align=center;verticalAlign=top;childLayout=stackLayout;horizontal=1;startSize=26;horizontalStack=0;resizeParent=1;resizeParentMax=0;resizeLast=0;collapsible=1;marginBottom=0;whiteSpace=wrap;html=1;" parent="WIyWlLk6GJQsqaUBKTNV-1" vertex="1">
          <mxGeometry x="580" y="140" width="160" height="210" as="geometry" />
        </mxCell>
        <mxCell id="4wEE5A84xw4fsfHNDBvs-1" value="- dimensao: int&lt;br&gt;- matriz: Celula[ ] [ ]&lt;div&gt;- quantPedras: int&lt;/div&gt;&lt;div&gt;- quantFrutasOuro: (int, int)&lt;/div&gt;&lt;div&gt;- quantAbacate&lt;span style=&quot;background-color: initial;&quot;&gt;: (int, int)&lt;/span&gt;&lt;/div&gt;&lt;div&gt;- quantCoco:&amp;nbsp;&lt;span style=&quot;background-color: initial;&quot;&gt;(int, int)&lt;/span&gt;&lt;/div&gt;&lt;div&gt;&lt;span style=&quot;background-color: initial;&quot;&gt;- quantAmora&lt;/span&gt;&lt;span style=&quot;background-color: initial;&quot;&gt;: (int, int)&lt;/span&gt;&lt;/div&gt;&lt;div&gt;- quantAcerola&lt;span style=&quot;background-color: initial;&quot;&gt;: (int, int)&lt;/span&gt;&lt;/div&gt;&lt;div&gt;&lt;span style=&quot;background-color: initial;&quot;&gt;- quantGoiaba&lt;/span&gt;&lt;span style=&quot;background-color: initial;&quot;&gt;: (int, int)&lt;/span&gt;&lt;/div&gt;&lt;div&gt;- quantLaranja&lt;span style=&quot;background-color: initial;&quot;&gt;: (int, int)&lt;/span&gt;&lt;/div&gt;&lt;div&gt;&lt;span style=&quot;background-color: initial;&quot;&gt;- bichada&lt;/span&gt;&lt;span style=&quot;background-color: initial;&quot;&gt;: int&lt;/span&gt;&lt;/div&gt;" style="text;strokeColor=none;fillColor=none;align=left;verticalAlign=top;spacingLeft=4;spacingRight=4;overflow=hidden;rotatable=0;points=[[0,0.5],[1,0.5]];portConstraint=eastwest;whiteSpace=wrap;html=1;" parent="4wEE5A84xw4fsfHNDBvs-0" vertex="1">
          <mxGeometry y="26" width="160" height="174" as="geometry" />
        </mxCell>
        <mxCell id="4wEE5A84xw4fsfHNDBvs-2" value="" style="line;strokeWidth=1;fillColor=none;align=left;verticalAlign=middle;spacingTop=-1;spacingLeft=3;spacingRight=3;rotatable=0;labelPosition=right;points=[];portConstraint=eastwest;strokeColor=inherit;" parent="4wEE5A84xw4fsfHNDBvs-0" vertex="1">
          <mxGeometry y="200" width="160" height="10" as="geometry" />
        </mxCell>
        <mxCell id="4wEE5A84xw4fsfHNDBvs-4" value="&lt;i style=&quot;font-weight: normal;&quot;&gt;Elemento&lt;/i&gt;" style="swimlane;fontStyle=1;align=center;verticalAlign=top;childLayout=stackLayout;horizontal=1;startSize=26;horizontalStack=0;resizeParent=1;resizeParentMax=0;resizeLast=0;collapsible=1;marginBottom=0;whiteSpace=wrap;html=1;" parent="WIyWlLk6GJQsqaUBKTNV-1" vertex="1">
          <mxGeometry x="60" y="585" width="160" height="68" as="geometry" />
        </mxCell>
        <mxCell id="4wEE5A84xw4fsfHNDBvs-5" value="+ posX: int&lt;div&gt;+ posY: int&lt;/div&gt;" style="text;strokeColor=none;fillColor=none;align=left;verticalAlign=top;spacingLeft=4;spacingRight=4;overflow=hidden;rotatable=0;points=[[0,0.5],[1,0.5]];portConstraint=eastwest;whiteSpace=wrap;html=1;" parent="4wEE5A84xw4fsfHNDBvs-4" vertex="1">
          <mxGeometry y="26" width="160" height="34" as="geometry" />
        </mxCell>
        <mxCell id="4wEE5A84xw4fsfHNDBvs-6" value="" style="line;strokeWidth=1;fillColor=none;align=left;verticalAlign=middle;spacingTop=-1;spacingLeft=3;spacingRight=3;rotatable=0;labelPosition=right;points=[];portConstraint=eastwest;strokeColor=inherit;" parent="4wEE5A84xw4fsfHNDBvs-4" vertex="1">
          <mxGeometry y="60" width="160" height="8" as="geometry" />
        </mxCell>
        <mxCell id="4wEE5A84xw4fsfHNDBvs-16" value="Jogador" style="swimlane;fontStyle=1;align=center;verticalAlign=top;childLayout=stackLayout;horizontal=1;startSize=26;horizontalStack=0;resizeParent=1;resizeParentMax=0;resizeLast=0;collapsible=1;marginBottom=0;whiteSpace=wrap;html=1;" parent="WIyWlLk6GJQsqaUBKTNV-1" vertex="1">
          <mxGeometry x="670" y="484" width="140" height="330" as="geometry" />
        </mxCell>
        <mxCell id="4wEE5A84xw4fsfHNDBvs-17" value="- nome: string&lt;div&gt;- mochila: Mochila&lt;br&gt;- pontosMov: int&lt;/div&gt;&lt;div&gt;- forca: int&lt;/div&gt;&lt;div&gt;&lt;div&gt;- elemEstat: ElementoEstatico&lt;/div&gt;&lt;/div&gt;&lt;div&gt;- estaDoente: boolean&lt;/div&gt;" style="text;strokeColor=none;fillColor=none;align=left;verticalAlign=top;spacingLeft=4;spacingRight=4;overflow=hidden;rotatable=0;points=[[0,0.5],[1,0.5]];portConstraint=eastwest;whiteSpace=wrap;html=1;" parent="4wEE5A84xw4fsfHNDBvs-16" vertex="1">
          <mxGeometry y="26" width="140" height="144" as="geometry" />
        </mxCell>
        <mxCell id="4wEE5A84xw4fsfHNDBvs-18" value="" style="line;strokeWidth=1;fillColor=none;align=left;verticalAlign=middle;spacingTop=-1;spacingLeft=3;spacingRight=3;rotatable=0;labelPosition=right;points=[];portConstraint=eastwest;strokeColor=inherit;" parent="4wEE5A84xw4fsfHNDBvs-16" vertex="1">
          <mxGeometry y="170" width="140" height="8" as="geometry" />
        </mxCell>
        <mxCell id="4wEE5A84xw4fsfHNDBvs-19" value="+ mover(posX, posY, pontosMov, elemEstat)&lt;br&gt;+ empurrar(nome)&lt;br&gt;+ comerFruta(mochila)&lt;br&gt;+ pegarFruta(mochila)&lt;br&gt;+ derrubarFruta(forca, mochila&lt;span style=&quot;background-color: initial;&quot;&gt;)&lt;/span&gt;&lt;div&gt;&lt;div&gt;&lt;div&gt;&lt;br&gt;&lt;/div&gt;&lt;/div&gt;&lt;/div&gt;" style="text;strokeColor=none;fillColor=none;align=left;verticalAlign=top;spacingLeft=4;spacingRight=4;overflow=hidden;rotatable=0;points=[[0,0.5],[1,0.5]];portConstraint=eastwest;whiteSpace=wrap;html=1;" parent="4wEE5A84xw4fsfHNDBvs-16" vertex="1">
          <mxGeometry y="178" width="140" height="152" as="geometry" />
        </mxCell>
        <mxCell id="4wEE5A84xw4fsfHNDBvs-21" value="Fruta" style="swimlane;fontStyle=1;align=center;verticalAlign=top;childLayout=stackLayout;horizontal=1;startSize=26;horizontalStack=0;resizeParent=1;resizeParentMax=0;resizeLast=0;collapsible=1;marginBottom=0;whiteSpace=wrap;html=1;" parent="WIyWlLk6GJQsqaUBKTNV-1" vertex="1">
          <mxGeometry x="490" y="650" width="150" height="200" as="geometry" />
        </mxCell>
        <mxCell id="4wEE5A84xw4fsfHNDBvs-22" value="&lt;div&gt;&lt;br&gt;&lt;/div&gt;- tipo: String&lt;br&gt;- bichada: boolean&lt;div&gt;- ehOuro: boolean&lt;br&gt;- propriedade: int&lt;div&gt;&lt;br&gt;&lt;/div&gt;&lt;/div&gt;" style="text;strokeColor=none;fillColor=none;align=left;verticalAlign=top;spacingLeft=4;spacingRight=4;overflow=hidden;rotatable=0;points=[[0,0.5],[1,0.5]];portConstraint=eastwest;whiteSpace=wrap;html=1;" parent="4wEE5A84xw4fsfHNDBvs-21" vertex="1">
          <mxGeometry y="26" width="150" height="114" as="geometry" />
        </mxCell>
        <mxCell id="4wEE5A84xw4fsfHNDBvs-23" value="" style="line;strokeWidth=1;fillColor=none;align=left;verticalAlign=middle;spacingTop=-1;spacingLeft=3;spacingRight=3;rotatable=0;labelPosition=right;points=[];portConstraint=eastwest;strokeColor=inherit;" parent="4wEE5A84xw4fsfHNDBvs-21" vertex="1">
          <mxGeometry y="140" width="150" height="8" as="geometry" />
        </mxCell>
        <mxCell id="4wEE5A84xw4fsfHNDBvs-24" value="&lt;div&gt;&lt;span style=&quot;background-color: initial;&quot;&gt;+ mover(int x, int y)&lt;/span&gt;&lt;/div&gt;&lt;div&gt;&lt;span style=&quot;background-color: initial;&quot;&gt;+ causarEfeito(propriedade)&lt;/span&gt;&lt;/div&gt;" style="text;strokeColor=none;fillColor=none;align=left;verticalAlign=top;spacingLeft=4;spacingRight=4;overflow=hidden;rotatable=0;points=[[0,0.5],[1,0.5]];portConstraint=eastwest;whiteSpace=wrap;html=1;" parent="4wEE5A84xw4fsfHNDBvs-21" vertex="1">
          <mxGeometry y="148" width="150" height="52" as="geometry" />
        </mxCell>
        <mxCell id="4wEE5A84xw4fsfHNDBvs-25" value="Mochila" style="swimlane;fontStyle=1;align=center;verticalAlign=top;childLayout=stackLayout;horizontal=1;startSize=26;horizontalStack=0;resizeParent=1;resizeParentMax=0;resizeLast=0;collapsible=1;marginBottom=0;whiteSpace=wrap;html=1;" parent="WIyWlLk6GJQsqaUBKTNV-1" vertex="1">
          <mxGeometry x="590" y="1030" width="160" height="160" as="geometry" />
        </mxCell>
        <mxCell id="4wEE5A84xw4fsfHNDBvs-26" value="+ capacidade: int&lt;br&gt;+ frutas: Fruta[]" style="text;strokeColor=none;fillColor=none;align=left;verticalAlign=top;spacingLeft=4;spacingRight=4;overflow=hidden;rotatable=0;points=[[0,0.5],[1,0.5]];portConstraint=eastwest;whiteSpace=wrap;html=1;" parent="4wEE5A84xw4fsfHNDBvs-25" vertex="1">
          <mxGeometry y="26" width="160" height="44" as="geometry" />
        </mxCell>
        <mxCell id="4wEE5A84xw4fsfHNDBvs-27" value="" style="line;strokeWidth=1;fillColor=none;align=left;verticalAlign=middle;spacingTop=-1;spacingLeft=3;spacingRight=3;rotatable=0;labelPosition=right;points=[];portConstraint=eastwest;strokeColor=inherit;" parent="4wEE5A84xw4fsfHNDBvs-25" vertex="1">
          <mxGeometry y="70" width="160" height="8" as="geometry" />
        </mxCell>
        <mxCell id="4wEE5A84xw4fsfHNDBvs-28" value="+ adicionarFruta(frutas)&lt;div&gt;+ removerFruta(frutas)&lt;br&gt;+ comer&lt;span style=&quot;background-color: initial;&quot;&gt;Fruta(frutas)&lt;br&gt;+ estaCheia(capacidade)&lt;/span&gt;&lt;/div&gt;" style="text;strokeColor=none;fillColor=none;align=left;verticalAlign=top;spacingLeft=4;spacingRight=4;overflow=hidden;rotatable=0;points=[[0,0.5],[1,0.5]];portConstraint=eastwest;whiteSpace=wrap;html=1;" parent="4wEE5A84xw4fsfHNDBvs-25" vertex="1">
          <mxGeometry y="78" width="160" height="82" as="geometry" />
        </mxCell>
        <mxCell id="4wEE5A84xw4fsfHNDBvs-29" value="Jogo" style="swimlane;fontStyle=1;align=center;verticalAlign=top;childLayout=stackLayout;horizontal=1;startSize=26;horizontalStack=0;resizeParent=1;resizeParentMax=0;resizeLast=0;collapsible=1;marginBottom=0;whiteSpace=wrap;html=1;" parent="WIyWlLk6GJQsqaUBKTNV-1" vertex="1">
          <mxGeometry x="124" y="10" width="160" height="190" as="geometry" />
        </mxCell>
        <mxCell id="4wEE5A84xw4fsfHNDBvs-30" value="- terreno: Terreno&lt;div&gt;- jogadores: Jogador[ ]&lt;/div&gt;&lt;div&gt;- turnoAtual: int&lt;/div&gt;&lt;div&gt;- vitoria: boolean&lt;/div&gt;&lt;div&gt;- dados: int&amp;nbsp;&lt;/div&gt;&lt;div&gt;&lt;br&gt;&lt;/div&gt;" style="text;strokeColor=none;fillColor=none;align=left;verticalAlign=top;spacingLeft=4;spacingRight=4;overflow=hidden;rotatable=0;points=[[0,0.5],[1,0.5]];portConstraint=eastwest;whiteSpace=wrap;html=1;" parent="4wEE5A84xw4fsfHNDBvs-29" vertex="1">
          <mxGeometry y="26" width="160" height="84" as="geometry" />
        </mxCell>
        <mxCell id="4wEE5A84xw4fsfHNDBvs-31" value="" style="line;strokeWidth=1;fillColor=none;align=left;verticalAlign=middle;spacingTop=-1;spacingLeft=3;spacingRight=3;rotatable=0;labelPosition=right;points=[];portConstraint=eastwest;strokeColor=inherit;" parent="4wEE5A84xw4fsfHNDBvs-29" vertex="1">
          <mxGeometry y="110" width="160" height="8" as="geometry" />
        </mxCell>
        <mxCell id="4wEE5A84xw4fsfHNDBvs-32" value="+ criarTerreno: terreno&lt;div&gt;+ inicializarJogo(jogadores, terreno)&lt;br&gt;&lt;/div&gt;&lt;div&gt;+ finalizarJogo(vitoria)&lt;br&gt;&lt;/div&gt;&lt;div&gt;&lt;br&gt;&lt;/div&gt;" style="text;strokeColor=none;fillColor=none;align=left;verticalAlign=top;spacingLeft=4;spacingRight=4;overflow=hidden;rotatable=0;points=[[0,0.5],[1,0.5]];portConstraint=eastwest;whiteSpace=wrap;html=1;" parent="4wEE5A84xw4fsfHNDBvs-29" vertex="1">
          <mxGeometry y="118" width="160" height="72" as="geometry" />
        </mxCell>
        <mxCell id="4wEE5A84xw4fsfHNDBvs-35" value="Pedra" style="swimlane;fontStyle=1;align=center;verticalAlign=top;childLayout=stackLayout;horizontal=1;startSize=26;horizontalStack=0;resizeParent=1;resizeParentMax=0;resizeLast=0;collapsible=1;marginBottom=0;whiteSpace=wrap;html=1;" parent="WIyWlLk6GJQsqaUBKTNV-1" vertex="1">
          <mxGeometry x="10" y="874" width="120" height="34" as="geometry" />
        </mxCell>
        <mxCell id="4wEE5A84xw4fsfHNDBvs-37" value="" style="line;strokeWidth=1;fillColor=none;align=left;verticalAlign=middle;spacingTop=-1;spacingLeft=3;spacingRight=3;rotatable=0;labelPosition=right;points=[];portConstraint=eastwest;strokeColor=inherit;" parent="4wEE5A84xw4fsfHNDBvs-35" vertex="1">
          <mxGeometry y="26" width="120" height="8" as="geometry" />
        </mxCell>
        <mxCell id="4wEE5A84xw4fsfHNDBvs-39" value="Árvore" style="swimlane;fontStyle=1;align=center;verticalAlign=top;childLayout=stackLayout;horizontal=1;startSize=26;horizontalStack=0;resizeParent=1;resizeParentMax=0;resizeLast=0;collapsible=1;marginBottom=0;whiteSpace=wrap;html=1;" parent="WIyWlLk6GJQsqaUBKTNV-1" vertex="1">
          <mxGeometry x="340" y="900" width="130" height="68" as="geometry" />
        </mxCell>
        <mxCell id="4wEE5A84xw4fsfHNDBvs-40" value="&lt;div&gt;- temMaracuja: boolen&lt;/div&gt;" style="text;strokeColor=none;fillColor=none;align=left;verticalAlign=top;spacingLeft=4;spacingRight=4;overflow=hidden;rotatable=0;points=[[0,0.5],[1,0.5]];portConstraint=eastwest;whiteSpace=wrap;html=1;" parent="4wEE5A84xw4fsfHNDBvs-39" vertex="1">
          <mxGeometry y="26" width="130" height="34" as="geometry" />
        </mxCell>
        <mxCell id="4wEE5A84xw4fsfHNDBvs-41" value="" style="line;strokeWidth=1;fillColor=none;align=left;verticalAlign=middle;spacingTop=-1;spacingLeft=3;spacingRight=3;rotatable=0;labelPosition=right;points=[];portConstraint=eastwest;strokeColor=inherit;" parent="4wEE5A84xw4fsfHNDBvs-39" vertex="1">
          <mxGeometry y="60" width="130" height="8" as="geometry" />
        </mxCell>
        <mxCell id="4wEE5A84xw4fsfHNDBvs-44" value="Grama" style="swimlane;fontStyle=1;align=center;verticalAlign=top;childLayout=stackLayout;horizontal=1;startSize=26;horizontalStack=0;resizeParent=1;resizeParentMax=0;resizeLast=0;collapsible=1;marginBottom=0;whiteSpace=wrap;html=1;" parent="WIyWlLk6GJQsqaUBKTNV-1" vertex="1">
          <mxGeometry x="144" y="900" width="120" height="88" as="geometry" />
        </mxCell>
        <mxCell id="4wEE5A84xw4fsfHNDBvs-45" value="- temArvore: boolean&lt;div&gt;- temFruta: boolean&lt;/div&gt;" style="text;strokeColor=none;fillColor=none;align=left;verticalAlign=top;spacingLeft=4;spacingRight=4;overflow=hidden;rotatable=0;points=[[0,0.5],[1,0.5]];portConstraint=eastwest;whiteSpace=wrap;html=1;" parent="4wEE5A84xw4fsfHNDBvs-44" vertex="1">
          <mxGeometry y="26" width="120" height="54" as="geometry" />
        </mxCell>
        <mxCell id="4wEE5A84xw4fsfHNDBvs-46" value="" style="line;strokeWidth=1;fillColor=none;align=left;verticalAlign=middle;spacingTop=-1;spacingLeft=3;spacingRight=3;rotatable=0;labelPosition=right;points=[];portConstraint=eastwest;strokeColor=inherit;" parent="4wEE5A84xw4fsfHNDBvs-44" vertex="1">
          <mxGeometry y="80" width="120" height="8" as="geometry" />
        </mxCell>
        <mxCell id="4wEE5A84xw4fsfHNDBvs-50" value="" style="endArrow=none;html=1;rounded=0;exitX=1.018;exitY=0.965;exitDx=0;exitDy=0;exitPerimeter=0;entryX=0.017;entryY=0.541;entryDx=0;entryDy=0;entryPerimeter=0;" parent="WIyWlLk6GJQsqaUBKTNV-1" source="4wEE5A84xw4fsfHNDBvs-56" target="4wEE5A84xw4fsfHNDBvs-2" edge="1">
          <mxGeometry width="50" height="50" relative="1" as="geometry">
            <mxPoint x="412" y="358" as="sourcePoint" />
            <mxPoint x="632" y="388" as="targetPoint" />
            <Array as="points">
              <mxPoint x="510" y="345" />
            </Array>
          </mxGeometry>
        </mxCell>
        <mxCell id="4wEE5A84xw4fsfHNDBvs-51" value="" style="endArrow=none;html=1;rounded=0;entryX=0.579;entryY=1.002;entryDx=0;entryDy=0;entryPerimeter=0;exitX=0.475;exitY=0;exitDx=0;exitDy=0;exitPerimeter=0;" parent="WIyWlLk6GJQsqaUBKTNV-1" source="4wEE5A84xw4fsfHNDBvs-25" target="4wEE5A84xw4fsfHNDBvs-19" edge="1">
          <mxGeometry width="50" height="50" relative="1" as="geometry">
            <mxPoint x="412" y="978" as="sourcePoint" />
            <mxPoint x="462" y="928" as="targetPoint" />
          </mxGeometry>
        </mxCell>
        <mxCell id="4wEE5A84xw4fsfHNDBvs-52" value="" style="endArrow=none;html=1;rounded=0;entryX=0.484;entryY=1.017;entryDx=0;entryDy=0;entryPerimeter=0;exitX=0.205;exitY=-0.013;exitDx=0;exitDy=0;exitPerimeter=0;" parent="WIyWlLk6GJQsqaUBKTNV-1" source="4wEE5A84xw4fsfHNDBvs-25" target="4wEE5A84xw4fsfHNDBvs-24" edge="1">
          <mxGeometry width="50" height="50" relative="1" as="geometry">
            <mxPoint x="412" y="898" as="sourcePoint" />
            <mxPoint x="462" y="848" as="targetPoint" />
          </mxGeometry>
        </mxCell>
        <mxCell id="4wEE5A84xw4fsfHNDBvs-53" value="" style="endArrow=none;html=1;rounded=0;entryX=1.006;entryY=1.094;entryDx=0;entryDy=0;entryPerimeter=0;exitX=-0.001;exitY=0.032;exitDx=0;exitDy=0;exitPerimeter=0;" parent="WIyWlLk6GJQsqaUBKTNV-1" source="4wEE5A84xw4fsfHNDBvs-1" target="4wEE5A84xw4fsfHNDBvs-30" edge="1">
          <mxGeometry width="50" height="50" relative="1" as="geometry">
            <mxPoint x="390" y="210" as="sourcePoint" />
            <mxPoint x="440" y="160" as="targetPoint" />
          </mxGeometry>
        </mxCell>
        <mxCell id="4wEE5A84xw4fsfHNDBvs-54" value="" style="endArrow=none;html=1;rounded=0;entryX=0.5;entryY=1;entryDx=0;entryDy=0;exitX=0.787;exitY=-0.001;exitDx=0;exitDy=0;exitPerimeter=0;" parent="WIyWlLk6GJQsqaUBKTNV-1" source="4wEE5A84xw4fsfHNDBvs-16" target="4wEE5A84xw4fsfHNDBvs-0" edge="1">
          <mxGeometry width="50" height="50" relative="1" as="geometry">
            <mxPoint x="772" y="618" as="sourcePoint" />
            <mxPoint x="712.96" y="415.34000000000003" as="targetPoint" />
          </mxGeometry>
        </mxCell>
        <mxCell id="4wEE5A84xw4fsfHNDBvs-55" value="Célula" style="swimlane;fontStyle=1;align=center;verticalAlign=top;childLayout=stackLayout;horizontal=1;startSize=26;horizontalStack=0;resizeParent=1;resizeParentMax=0;resizeLast=0;collapsible=1;marginBottom=0;whiteSpace=wrap;html=1;" parent="WIyWlLk6GJQsqaUBKTNV-1" vertex="1">
          <mxGeometry x="310" y="200" width="160" height="200" as="geometry" />
        </mxCell>
        <mxCell id="4wEE5A84xw4fsfHNDBvs-56" value="&lt;div&gt;- temJogador: boolean&lt;/div&gt;&lt;div&gt;- posicaoX: int&lt;/div&gt;&lt;div&gt;- posicaoY: int&lt;br&gt;- elementoEstat: ElementoEstatico&lt;/div&gt;&lt;div&gt;- frutaAtual: Fruta&lt;br&gt;&lt;/div&gt;&lt;div&gt;- temFruta: boolean&lt;/div&gt;" style="text;strokeColor=none;fillColor=none;align=left;verticalAlign=top;spacingLeft=4;spacingRight=4;overflow=hidden;rotatable=0;points=[[0,0.5],[1,0.5]];portConstraint=eastwest;whiteSpace=wrap;html=1;" parent="4wEE5A84xw4fsfHNDBvs-55" vertex="1">
          <mxGeometry y="26" width="160" height="124" as="geometry" />
        </mxCell>
        <mxCell id="4wEE5A84xw4fsfHNDBvs-57" value="" style="line;strokeWidth=1;fillColor=none;align=left;verticalAlign=middle;spacingTop=-1;spacingLeft=3;spacingRight=3;rotatable=0;labelPosition=right;points=[];portConstraint=eastwest;strokeColor=inherit;" parent="4wEE5A84xw4fsfHNDBvs-55" vertex="1">
          <mxGeometry y="150" width="160" height="50" as="geometry" />
        </mxCell>
        <mxCell id="4wEE5A84xw4fsfHNDBvs-62" value="ElementoEstatico" style="swimlane;fontStyle=1;align=center;verticalAlign=top;childLayout=stackLayout;horizontal=1;startSize=26;horizontalStack=0;resizeParent=1;resizeParentMax=0;resizeLast=0;collapsible=1;marginBottom=0;whiteSpace=wrap;html=1;" parent="WIyWlLk6GJQsqaUBKTNV-1" vertex="1">
          <mxGeometry x="124" y="700" width="160" height="108" as="geometry" />
        </mxCell>
        <mxCell id="4wEE5A84xw4fsfHNDBvs-63" value="- posX: int&lt;div&gt;- posY: int&lt;/div&gt;&lt;div&gt;- tipoElementoEstatico&lt;/div&gt;" style="text;strokeColor=none;fillColor=none;align=left;verticalAlign=top;spacingLeft=4;spacingRight=4;overflow=hidden;rotatable=0;points=[[0,0.5],[1,0.5]];portConstraint=eastwest;whiteSpace=wrap;html=1;" parent="4wEE5A84xw4fsfHNDBvs-62" vertex="1">
          <mxGeometry y="26" width="160" height="74" as="geometry" />
        </mxCell>
        <mxCell id="4wEE5A84xw4fsfHNDBvs-64" value="" style="line;strokeWidth=1;fillColor=none;align=left;verticalAlign=middle;spacingTop=-1;spacingLeft=3;spacingRight=3;rotatable=0;labelPosition=right;points=[];portConstraint=eastwest;strokeColor=inherit;" parent="4wEE5A84xw4fsfHNDBvs-62" vertex="1">
          <mxGeometry y="100" width="160" height="8" as="geometry" />
        </mxCell>
        <mxCell id="4wEE5A84xw4fsfHNDBvs-65" value="" style="endArrow=open;endFill=1;endSize=12;html=1;rounded=0;exitX=0.5;exitY=0;exitDx=0;exitDy=0;entryX=0.75;entryY=1;entryDx=0;entryDy=0;" parent="WIyWlLk6GJQsqaUBKTNV-1" source="4wEE5A84xw4fsfHNDBvs-62" target="4wEE5A84xw4fsfHNDBvs-4" edge="1">
          <mxGeometry width="160" relative="1" as="geometry">
            <mxPoint x="260" y="780" as="sourcePoint" />
            <mxPoint x="420" y="780" as="targetPoint" />
          </mxGeometry>
        </mxCell>
        <mxCell id="4wEE5A84xw4fsfHNDBvs-66" value="" style="endArrow=open;endFill=1;endSize=12;html=1;rounded=0;exitX=0.5;exitY=0;exitDx=0;exitDy=0;entryX=0.25;entryY=1;entryDx=0;entryDy=0;" parent="WIyWlLk6GJQsqaUBKTNV-1" source="4wEE5A84xw4fsfHNDBvs-35" target="4wEE5A84xw4fsfHNDBvs-62" edge="1">
          <mxGeometry width="160" relative="1" as="geometry">
            <mxPoint x="160" y="780" as="sourcePoint" />
            <mxPoint x="320" y="780" as="targetPoint" />
          </mxGeometry>
        </mxCell>
        <mxCell id="4wEE5A84xw4fsfHNDBvs-67" value="" style="endArrow=open;endFill=1;endSize=12;html=1;rounded=0;exitX=0.5;exitY=0;exitDx=0;exitDy=0;entryX=0.5;entryY=1;entryDx=0;entryDy=0;" parent="WIyWlLk6GJQsqaUBKTNV-1" source="4wEE5A84xw4fsfHNDBvs-44" target="4wEE5A84xw4fsfHNDBvs-62" edge="1">
          <mxGeometry width="160" relative="1" as="geometry">
            <mxPoint x="160" y="780" as="sourcePoint" />
            <mxPoint x="320" y="780" as="targetPoint" />
          </mxGeometry>
        </mxCell>
        <mxCell id="4wEE5A84xw4fsfHNDBvs-68" value="" style="endArrow=open;endFill=1;endSize=12;html=1;rounded=0;exitX=0.5;exitY=0;exitDx=0;exitDy=0;entryX=0.75;entryY=1;entryDx=0;entryDy=0;" parent="WIyWlLk6GJQsqaUBKTNV-1" source="4wEE5A84xw4fsfHNDBvs-39" target="4wEE5A84xw4fsfHNDBvs-62" edge="1">
          <mxGeometry width="160" relative="1" as="geometry">
            <mxPoint x="160" y="780" as="sourcePoint" />
            <mxPoint x="320" y="780" as="targetPoint" />
          </mxGeometry>
        </mxCell>
        <mxCell id="4wEE5A84xw4fsfHNDBvs-69" value="" style="endArrow=diamondThin;endFill=1;endSize=24;html=1;rounded=0;entryX=1.011;entryY=0.428;entryDx=0;entryDy=0;entryPerimeter=0;exitX=0;exitY=0.5;exitDx=0;exitDy=0;" parent="WIyWlLk6GJQsqaUBKTNV-1" source="4wEE5A84xw4fsfHNDBvs-40" target="4wEE5A84xw4fsfHNDBvs-45" edge="1">
          <mxGeometry width="160" relative="1" as="geometry">
            <mxPoint x="330" y="1000" as="sourcePoint" />
            <mxPoint x="490" y="1000" as="targetPoint" />
          </mxGeometry>
        </mxCell>
      </root>
    </mxGraphModel>
  </diagram>
</mxfile>
